<svg xmlns="http://www.w3.org/2000/svg" viewBox="0 0 85.79 122.88" xml:space="preserve"><path d="m60.47 89.65 3.89-19.79 3.95 5.95c8.5-3.41 13.28-9.04 13.99-17.71 6.98 12.21 2.74 23.16-6.11 29.57l4.03 6.07-19.75-4.09zM9.74 77.85 6.26 97.58c-.05.27-.16.52-.33.71-1.24 1.6-2.02 2.98-2.25 4.09-.16.82 0 1.48.55 2l13.61 13.61a5.81 5.81 0 0 0 3.07 1.57c1.31.25 2.84.11 4.6-.37.03 0 .07-.01.1-.01.67-.18 1.54-.4 2.38-.6 3.65-.89 6.83-1.67 9.78-4.34l3.8-3.96c.04-.07.1-.12.15-.18.05-.05.42-.42.93-.9 2.6-2.54 5.81-5.67 3.85-8.42l-1.52-1.52c-.74.71-1.52 1.41-2.27 2.08-.68.6-1.33 1.16-1.91 1.75a1.6 1.6 0 0 1-2.27 0 1.6 1.6 0 0 1 0-2.27c.59-.59 1.31-1.23 2.06-1.9 2.57-2.27 5.52-4.86 3.93-7.13l-1.5-1.5c-.08-.08-.15-.18-.22-.27-.86.89-1.82 1.74-2.75 2.55-.68.6-1.33 1.16-1.91 1.75a1.6 1.6 0 0 1-2.27 0 1.6 1.6 0 0 1 0-2.27c.59-.59 1.31-1.23 2.06-1.9 2.57-2.27 5.52-4.86 3.94-7.13l-1.5-1.5a1.62 1.62 0 0 1-.26-.34l-4.41 4.41a1.6 1.6 0 0 1-2.27 0 1.6 1.6 0 0 1 0-2.27l8.27-8.27c1.98-1.98 2.43-4.04 1.91-5.6-.19-.57-.51-1.08-.9-1.48-.2-.2-.44-.39-.69-.54h-.01c-.12.06-.21-.07-.33-.18-.14-.07-.29-.13-.45-.18-1.38-.45-3.15-.13-4.97 1.39-.02.03-.05.05-.08.06-.2.17-.39.35-.59.54L18.44 86.23a1.6 1.6 0 0 1-2.27 0c-.57-.57-.62-1.47-.15-2.1l-6.28-6.28zm10.87 1.67.55-.55 11.33-11.33c-1.17-.54-2.27-1.31-3.23-2.27a11.015 11.015 0 0 1 0-15.59 11.015 11.015 0 0 1 15.59 0 11.015 11.015 0 0 1 0 15.59l-.11.11a7.315 7.315 0 0 1 1.18 1.39l14.05-14.05a5.54 5.54 0 0 1 0-7.83L49.5 34.51a5.54 5.54 0 0 1-7.83 0L12.55 63.63a5.54 5.54 0 0 1 0 7.83l8.06 8.06zm24.7-3.73c-.38.53-.82 1.05-1.33 1.56L42.33 79l-.01-.04c.12.07.23.15.34.26l1.57 1.57c.08.08.16.19.23.29 1.76 2.42 1.49 4.58.29 6.54.22.08.42.2.59.37l1.57 1.57c.08.08.16.19.23.29 1.9 2.61 1.42 4.89 0 6.97.07.04.12.1.19.16l1.57 1.57c.08.08.16.19.23.29 3.65 4.99-.7 9.22-4.19 12.64l-.9.9-3.89 4.09-.12.12c-3.57 3.24-7.11 4.1-11.19 5.1-.68.16-1.38.34-2.34.59-.03 0-.04.01-.07.01-2.21.6-4.22.75-6.03.42a8.865 8.865 0 0 1-4.74-2.45L2.07 106.67C.69 105.34.23 103.7.61 101.76c.3-1.56 1.2-3.28 2.62-5.14l3.63-20.58v-.08c.04-.25.09-.54.14-.84l-7-7 46.2-46.2 26.49 26.49-27.38 27.38zm-9.46-71.7-3.89 19.79-3.95-5.95c-8.5 3.41-13.28 9.04-13.99 17.7-6.99-12.21-2.74-23.16 6.11-29.57L16.1 0l19.75 4.09z" fill-rule="evenodd" clip-rule="evenodd"/></svg>