<svg xmlns="http://www.w3.org/2000/svg" viewBox="0 0 1000 1000" xml:space="preserve"><path d="M698.47 24.69c-9 6.34-10.63 12.88-10.63 44.37V98.3l-17.58 2.45c-58.69 8.59-104.69 37.83-125.14 80.16-12.68 25.76-15.54 39.05-15.54 71.57 0 46.42 10.02 72.59 38.85 101.62 14.31 14.52 19.42 17.99 39.87 28.01 12.88 6.34 35.78 15.54 50.91 20.45l27.6 9 .61 88.13c.21 48.46-.2 88.13-.82 88.13-.82 0-8.18-3.27-16.36-7.16-28.42-13.7-42.12-31.69-57.25-75.45-9-25.97-13.5-33.33-24.33-39.46-33.33-18.61-74.63 5.32-74.63 43.35.2 20.45 10.63 51.33 24.33 71.36 11.45 16.56 29.24 21.67 99.37 28.01 70.54 6.54 120.03 16.97 163.78 34.76 5.73 2.25 7.36 1.84 20.65-5.11 37.62-19.83 64.61-52.96 78.31-96.31 6.54-20.24 7.98-59.91 3.07-81.99-6.75-31.69-25.97-62.77-51.12-83.22-21.27-16.97-48.87-28.83-107.76-45.39l-11.86-3.27v-77.7c0-85.88-1.02-80.56 13.29-74.63 19.02 7.97 38.44 27.2 44.78 44.58 1.84 4.91 5.11 14.11 7.56 20.65 8.18 22.49 21.27 31.9 44.37 32.1 15.33 0 25.15-4.29 35.58-15.95 10.63-11.86 13.7-26.38 9.2-44.58-4.7-19.02-13.9-36.6-29.04-55.21-26.55-33.14-58.04-49.7-108.34-56.86l-16.36-2.45-1.02-31.49c-.61-17.38-1.84-33.13-2.66-34.96-4.5-8.8-22.9-12.89-31.69-6.75zm-10.63 217.56c0 48.66-.61 71.57-2.25 71.57-4.29 0-35.99-16.97-44.58-24.13-13.08-10.63-19.42-25.56-19.42-46.42 0-23.11 4.3-34.76 18.2-47.85 10.84-10.22 37.01-24.74 44.37-24.74 3.47 0 3.68 4.3 3.68 71.57zm66.65 190.16c30.06 12.06 49.07 28.01 56.23 47.03 6.13 16.36 4.91 43.55-2.66 59.71-10.02 21.47-29.44 38.24-54.19 46.42-23.31 7.77-21.06 16.36-21.06-77.5 0-73.2.41-81.79 3.27-81.79 1.85 0 10.03 2.66 18.41 6.13zM14.91 554.28 10 559.59v308.35l5.72 5.52 5.52 5.72h88.34l5.93-6.75 5.93-6.54V561.63l-5.32-6.34-5.32-6.34H19.81l-4.9 5.33zM317.74 566.75c-57.46 4.09-153.16 25.15-162.77 35.58-3.68 4.09-3.88 8.79-3.88 111.64v107.35l6.34 5.52c5.52 4.91 9.2 6.13 26.58 8.18 11.04 1.43 24.95 3.88 30.47 5.72 14.72 4.7 58.48 24.54 131.89 59.91 83.22 40.08 146.61 68.3 165.63 73.41 28.01 7.77 53.98 5.72 184.03-14.93 38.85-6.13 76.47-11.86 83.83-12.47 31.69-3.07 42.33-8.18 105.31-50.1 53.57-35.78 66.66-45.39 83.63-61.34 13.08-12.47 18.4-21.27 20.65-34.15 1.23-7.57.61-9.2-3.48-13.29-2.66-2.66-6.75-5.73-8.79-6.95-3.68-2.04-3.48-2.66 3.68-11.04 9.81-11.45 11.25-19.63 5.72-31.08-8.38-17.17-31.9-26.17-57.66-22.08-24.74 3.68-45.6 13.7-67.89 32.1-26.58 21.88-31.69 25.56-45.39 32.31-28.42 13.9-80.36 22.08-142.11 22.29-44.98.2-61.34-2.66-95.08-16.36-12.27-5.11-29.85-12.27-38.85-15.74l-16.36-6.54 17.38-1.84c24.95-2.66 171.96 3.68 205.91 9.2 29.44 4.5 50.91-7.98 65.23-37.83 7.77-16.15 9-28.22 3.68-38.24-5.11-10.22-17.38-22.29-27.6-27.4-23.72-12.27-83.83-25.15-140.48-30.67-92.42-8.79-79.13-5.72-126.16-28.42-17.58-8.59-40.9-18.81-51.73-22.9-44.79-16.77-98.37-23.72-151.73-19.84z"/></svg>